{
	"asset":{
		"version":"2.0",
		"generator":"Houdini GLTF 2.0 Exporter"
	},
	"accessors":[
		{
			"bufferView":0,
			"componentType":5125,
			"count":146520,
			"type":"SCALAR",
			"min":[0
			],
			"max":[28825
			]
		},
		{
			"bufferView":1,
			"componentType":5126,
			"count":28826,
			"type":"VEC3",
			"min":[-1.32664931,-0.818479776,-1.28624475
			],
			"max":[1.474949,0.726982236,1.34828365
			]
		},
		{
			"bufferView":2,
			"componentType":5126,
			"count":28826,
			"type":"SCALAR",
			"min":[0
			],
			"max":[1
			]
		},
		{
			"bufferView":3,
			"componentType":5126,
			"count":28826,
			"type":"SCALAR",
			"min":[0.100000001
			],
			"max":[0.999999881
			]
		},
		{
			"bufferView":4,
			"componentType":5126,
			"count":28826,
			"type":"VEC3",
			"min":[-0.999954343,-0.999986291,-0.999935806
			],
			"max":[0.999954343,0.999986291,0.999871433
			]
		},
		{
			"bufferView":5,
			"componentType":5126,
			"count":28826,
			"type":"VEC4",
			"min":[-0.999566495,-0.999948561,-0.999577463,1
			],
			"max":[0.999183178,0.999953985,0.999575138,1
			]
		},
		{
			"bufferView":6,
			"componentType":5126,
			"count":28826,
			"type":"VEC2",
			"min":[0,-129
			],
			"max":[1,1
			]
		},
		{
			"bufferView":7,
			"componentType":5125,
			"count":28826,
			"type":"SCALAR",
			"min":[0
			],
			"max":[47
			]
		}
	],
	"buffers":[
		{
			"uri":"core-007-med-smooth-packed_data.bin",
			"byteLength":2315640,
			"name":"main_buffer"
		}
	],
	"bufferViews":[
		{
			"buffer":0,
			"byteLength":586080,
			"target":34963
		},
		{
			"buffer":0,
			"byteOffset":586080,
			"byteLength":345912,
			"target":34962
		},
		{
			"buffer":0,
			"byteOffset":931992,
			"byteLength":115304,
			"target":34962
		},
		{
			"buffer":0,
			"byteOffset":1047296,
			"byteLength":115304,
			"target":34962
		},
		{
			"buffer":0,
			"byteOffset":1162600,
			"byteLength":345912,
			"target":34962
		},
		{
			"buffer":0,
			"byteOffset":1508512,
			"byteLength":461216,
			"target":34962
		},
		{
			"buffer":0,
			"byteOffset":1969728,
			"byteLength":230608,
			"target":34962
		},
		{
			"buffer":0,
			"byteOffset":2200336,
			"byteLength":115304,
			"target":34962
		}
	],
	"nodes":[
		{
			"name":"main-bigger-new",
			"mesh":0
		}
	],
	"meshes":[
		{
			"primitives":[
				{
					"attributes":{
						"_class":7,
						"_fat":3,
						"TEXCOORD_0":6,
						"TANGENT":5,
						"POSITION":1,
						"NORMAL":4,
						"_curveu":2
					},
					"indices":0
				}
			],
			"name":"clean8"
		}
	],
	"scenes":[
		{
			"nodes":[0
			]
		}
	],
	"scene":0
}
