{
	"asset":{
		"generator":"Khronos glTF Blender I/O v4.5.47",
		"version":"2.0"
	},
	"scene":0,
	"scenes":[
		{
			"name":"Scene",
			"nodes":[
				0
			]
		}
	],
	"nodes":[
		{
			"mesh":0,
			"name":"B\u00e9zierCurve"
		}
	],
	"meshes":[
		{
			"name":"Mesh.004",
			"primitives":[
				{
					"attributes":{
						"POSITION":0
					},
					"indices":1,
					"mode":1
				}
			]
		}
	],
	"accessors":[
		{
			"bufferView":0,
			"componentType":5126,
			"count":13,
			"max":[
				1,
				0,
				0
			],
			"min":[
				-1,
				0,
				-0.2222221940755844
			],
			"type":"VEC3"
		},
		{
			"bufferView":1,
			"componentType":5123,
			"count":24,
			"type":"SCALAR"
		}
	],
	"bufferViews":[
		{
			"buffer":0,
			"byteLength":156,
			"byteOffset":0,
			"target":34962
		},
		{
			"buffer":0,
			"byteLength":48,
			"byteOffset":156,
			"target":34963
		}
	],
	"buffers":[
		{
			"byteLength":204,
			"uri":"curve.bin"
		}
	]
}
