{
	"asset":{
		"version":"2.0",
		"generator":"Houdini GLTF 2.0 Exporter"
	},
	"accessors":[
		{
			"bufferView":0,
			"componentType":5123,
			"count":12882,
			"type":"SCALAR",
			"min":[0
			],
			"max":[2264
			]
		},
		{
			"bufferView":1,
			"componentType":5126,
			"count":2265,
			"type":"VEC3",
			"min":[-0.150000006,-1.99999988,-0.150000006
			],
			"max":[0.150000006,2,0.150000006
			]
		},
		{
			"bufferView":2,
			"componentType":5126,
			"count":2265,
			"type":"VEC3",
			"min":[-1,-0.965003192,-1
			],
			"max":[1,0.965003252,1
			]
		}
	],
	"buffers":[
		{
			"uri":"holed-pole-001_data.bin",
			"byteLength":80124,
			"name":"main_buffer"
		}
	],
	"bufferViews":[
		{
			"buffer":0,
			"byteLength":25764,
			"target":34963
		},
		{
			"buffer":0,
			"byteOffset":25764,
			"byteLength":27180,
			"target":34962
		},
		{
			"buffer":0,
			"byteOffset":52944,
			"byteLength":27180,
			"target":34962
		}
	],
	"nodes":[
		{
			"name":"pole-holed-new",
			"mesh":0
		}
	],
	"meshes":[
		{
			"primitives":[
				{
					"attributes":{
						"POSITION":1,
						"NORMAL":2
					},
					"indices":0
				}
			],
			"name":"POLE_broken2"
		}
	],
	"scenes":[
		{
			"nodes":[0
			]
		}
	],
	"scene":0
}
