{
	"asset":{
		"version":"2.0",
		"generator":"Houdini GLTF 2.0 Exporter"
	},
	"accessors":[
		{
			"bufferView":0,
			"componentType":5125,
			"count":1637880,
			"type":"SCALAR",
			"min":[0
			],
			"max":[274239
			]
		},
		{
			"bufferView":1,
			"componentType":5126,
			"count":274240,
			"type":"VEC3",
			"min":[-1.56134188,-1.19867802,-1.48845923
			],
			"max":[1.54225671,1.25885475,1.71752799
			]
		}
	],
	"buffers":[
		{
			"uri":"test-pillar-static-fullgeo-002_data.bin",
			"byteLength":9842400,
			"name":"main_buffer"
		}
	],
	"bufferViews":[
		{
			"buffer":0,
			"byteLength":6551520,
			"target":34963
		},
		{
			"buffer":0,
			"byteOffset":6551520,
			"byteLength":3290880,
			"target":34962
		}
	],
	"nodes":[
		{
			"name":"main-bigger-new",
			"mesh":0
		}
	],
	"meshes":[
		{
			"primitives":[
				{
					"attributes":{
						"POSITION":1
					},
					"indices":0
				}
			],
			"name":"clean8"
		}
	],
	"scenes":[
		{
			"nodes":[0
			]
		}
	],
	"scene":0
}
