{
	"asset":{
		"version":"2.0",
		"generator":"Houdini GLTF 2.0 Exporter"
	},
	"accessors":[
		{
			"bufferView":0,
			"componentType":5123,
			"count":2328,
			"type":"SCALAR",
			"min":[0
			],
			"max":[799
			]
		},
		{
			"bufferView":1,
			"componentType":5126,
			"count":800,
			"type":"VEC3",
			"min":[-0.149999991,-1.67501116,-0.149999991
			],
			"max":[0.149999991,1.67446816,0.149999991
			]
		},
		{
			"bufferView":2,
			"componentType":5126,
			"count":800,
			"type":"VEC4",
			"min":[-1,-0.000220024842,-1,1
			],
			"max":[1,0.000350552262,1,1
			]
		},
		{
			"bufferView":3,
			"componentType":5126,
			"count":800,
			"type":"VEC3",
			"min":[-1,-1,-1
			],
			"max":[1,1,1
			]
		},
		{
			"bufferView":4,
			"componentType":5126,
			"count":800,
			"type":"VEC2",
			"min":[0,-4
			],
			"max":[0.958333313,1
			]
		}
	],
	"buffers":[
		{
			"uri":"thepole-005_data.bin",
			"byteLength":43056,
			"name":"main_buffer"
		}
	],
	"bufferViews":[
		{
			"buffer":0,
			"byteLength":4656,
			"target":34963
		},
		{
			"buffer":0,
			"byteOffset":4656,
			"byteLength":9600,
			"target":34962
		},
		{
			"buffer":0,
			"byteOffset":14256,
			"byteLength":12800,
			"target":34962
		},
		{
			"buffer":0,
			"byteOffset":27056,
			"byteLength":9600,
			"target":34962
		},
		{
			"buffer":0,
			"byteOffset":36656,
			"byteLength":6400,
			"target":34962
		}
	],
	"nodes":[
		{
			"name":"main-bigger-new",
			"mesh":0
		}
	],
	"meshes":[
		{
			"primitives":[
				{
					"attributes":{
						"TEXCOORD_0":4,
						"TANGENT":2,
						"POSITION":1,
						"NORMAL":3
					},
					"indices":0
				}
			],
			"name":"NEWPOLE"
		}
	],
	"scenes":[
		{
			"nodes":[0
			]
		}
	],
	"scene":0
}
