{
	"asset":{
		"version":"2.0",
		"generator":"Houdini GLTF 2.0 Exporter"
	},
	"accessors":[
		{
			"bufferView":0,
			"componentType":5123,
			"count":2808,
			"type":"SCALAR",
			"min":[0
			],
			"max":[955
			]
		},
		{
			"bufferView":1,
			"componentType":5126,
			"count":956,
			"type":"VEC3",
			"min":[-0.149999991,-1.67501116,-0.149999991
			],
			"max":[0.149999991,1.67446816,0.149999991
			]
		},
		{
			"bufferView":2,
			"componentType":5126,
			"count":956,
			"type":"VEC3",
			"min":[-1,-1,-1
			],
			"max":[1,1,1
			]
		}
	],
	"buffers":[
		{
			"uri":"thepole-004_data.bin",
			"byteLength":28560,
			"name":"main_buffer"
		}
	],
	"bufferViews":[
		{
			"buffer":0,
			"byteLength":5616,
			"target":34963
		},
		{
			"buffer":0,
			"byteOffset":5616,
			"byteLength":11472,
			"target":34962
		},
		{
			"buffer":0,
			"byteOffset":17088,
			"byteLength":11472,
			"target":34962
		}
	],
	"nodes":[
		{
			"name":"main-bigger-new",
			"mesh":0
		}
	],
	"meshes":[
		{
			"primitives":[
				{
					"attributes":{
						"POSITION":1,
						"NORMAL":2
					},
					"indices":0
				}
			],
			"name":"NEWPOLE"
		}
	],
	"scenes":[
		{
			"nodes":[0
			]
		}
	],
	"scene":0
}
