{
	"asset":{
		"generator":"Khronos glTF Blender I/O v4.5.47",
		"version":"2.0"
	},
	"scene":0,
	"scenes":[
		{
			"name":"Scene",
			"nodes":[
				0
			]
		}
	],
	"nodes":[
		{
			"mesh":0,
			"name":"main-bigger-new"
		}
	],
	"meshes":[
		{
			"name":"main-bigger-new",
			"primitives":[
				{
					"attributes":{
						"POSITION":0
					},
					"indices":1,
					"mode":1
				}
			]
		}
	],
	"accessors":[
		{
			"bufferView":0,
			"componentType":5126,
			"count":40803,
			"max":[
				1.7005003690719604,
				1.1357895135879517,
				1.6911643743515015
			],
			"min":[
				-1.5410761833190918,
				-1.0461792945861816,
				-1.6933602094650269
			],
			"type":"VEC3"
		},
		{
			"bufferView":1,
			"componentType":5123,
			"count":81318,
			"type":"SCALAR"
		}
	],
	"bufferViews":[
		{
			"buffer":0,
			"byteLength":489636,
			"byteOffset":0,
			"target":34962
		},
		{
			"buffer":0,
			"byteLength":162636,
			"byteOffset":489636,
			"target":34963
		}
	],
	"buffers":[
		{
			"byteLength":652272,
			"uri":"tpb-002.bin"
		}
	]
}
